<?xml version="1.0" encoding="UTF-8"?>
<svg width="200px" height="115px" viewBox="0 0 200 115" version="1.1" xmlns="http://www.w3.org/2000/svg" xmlns:xlink="http://www.w3.org/1999/xlink">
    <!-- Generator: Sketch 48.2 (47327) - http://www.bohemiancoding.com/sketch -->
    <title>Logo/GreenWhite</title>
    <desc>Created with Sketch.</desc>
    <defs></defs>
    <g id="Artboard" stroke="none" stroke-width="1" fill="none" fill-rule="evenodd" transform="translate(-550.000000, -718.000000)">
        <g id="Logo/GreenWhite" transform="translate(550.000000, 718.000000)">
            <g id="LincE-Relidy-REV-FULL-LOGO">
                <path d="M74.47,40.804 C73.065,40.804 71.793,41.374 70.872,42.294 L68.038,45.129 C66.778,46.389 64.735,46.389 63.476,45.129 L60.101,41.754 C61.959,39.254 61.762,35.707 59.494,33.439 C57.225,31.17 53.678,30.972 51.178,32.831 L47.516,29.169 C46.256,27.909 46.256,25.866 47.516,24.606 L50.347,21.775 C51.268,20.854 51.838,19.581 51.838,18.174 C51.839,16.768 51.269,15.495 50.347,14.573 L50.283,14.51 L41.001,23.792 C39.291,25.502 39.291,28.274 41.001,29.983 L48.611,37.594 C48.513,39.346 49.125,41.13 50.464,42.469 C51.802,43.807 53.586,44.42 55.338,44.322 L62.661,51.644 C64.37,53.354 67.142,53.354 68.853,51.644 L78.134,42.362 L78.067,42.294 C77.146,41.374 75.874,40.804 74.47,40.804" id="Fill-23" fill="#FFFFFE"></path>
                <polyline id="Fill-24" fill="#FFFFFE" points="120.876 98.801 101.042 98.801 101.042 79.546 118.829 79.546 118.829 75.912 101.042 75.912 101.042 58.801 120.876 58.801 120.876 55.105 96.173 55.105 96.173 102.496 120.876 102.496 120.876 98.801"></polyline>
                <path d="M140.132,96.767 C138.873,99.096 136.809,100.26 133.939,100.26 C131.163,100.26 129.151,99.081 127.904,96.72 C126.657,94.36 126.034,90.498 126.034,85.136 C126.034,79.899 126.68,76.053 127.975,73.6 C129.269,71.145 131.303,69.919 134.08,69.919 C136.904,69.919 138.933,71.068 140.168,73.366 C141.403,75.664 142.02,79.546 142.02,85.012 C142.02,90.52 141.39,94.438 140.132,96.767 Z M142.02,70.82 C141.032,69.392 139.85,68.325 138.474,67.621 C137.097,66.917 135.479,66.565 133.622,66.565 C129.551,66.565 126.51,68.097 124.498,71.161 C122.487,74.226 121.482,78.884 121.482,85.136 C121.482,91.513 122.435,96.162 124.34,99.081 C126.246,102 129.269,103.459 133.409,103.459 C135.197,103.459 136.785,103.086 138.174,102.342 C139.561,101.596 140.844,100.436 142.02,98.863 L142.02,102.496 L146.22,102.496 L146.22,55.105 L142.02,55.105 L142.02,70.82 Z" id="Fill-25" fill="#FFFFFE"></path>
                <path d="M167.276,96.751 C166.042,99.05 164.012,100.198 161.189,100.198 C158.413,100.198 156.377,98.977 155.084,96.533 C153.79,94.091 153.143,90.251 153.143,85.012 C153.143,79.65 153.766,75.784 155.014,73.413 C156.26,71.042 158.272,69.857 161.048,69.857 C163.918,69.857 165.983,71.027 167.242,73.366 C168.5,75.706 169.13,79.629 169.13,85.136 C169.13,90.582 168.512,94.453 167.276,96.751 Z M169.13,71.255 C167.952,69.681 166.671,68.527 165.284,67.792 C163.895,67.057 162.307,66.69 160.519,66.69 C156.377,66.69 153.355,68.149 151.449,71.068 C149.543,73.987 148.591,78.636 148.591,85.012 C148.591,91.265 149.596,95.924 151.608,98.988 C153.62,102.052 156.66,103.583 160.73,103.583 C162.612,103.583 164.242,103.237 165.619,102.543 C166.994,101.849 168.165,100.799 169.13,99.39 L169.13,102.124 C169.13,105.085 168.47,107.341 167.154,108.894 C165.836,110.447 163.918,111.224 161.401,111.224 C159.26,111.224 157.566,110.82 156.32,110.012 C155.071,109.204 154.308,108.014 154.026,106.44 L149.79,106.44 C149.978,108.863 151.061,110.824 153.038,112.326 C155.014,113.826 157.484,114.577 160.448,114.577 C165.153,114.577 168.477,113.516 170.418,111.394 C172.359,109.272 173.329,105.519 173.329,100.136 L173.329,67.652 L169.13,67.652 L169.13,71.255 Z" id="Fill-26" fill="#FFFFFE"></path>
                <path d="M180.251,81.317 C180.251,77.632 180.887,74.821 182.157,72.885 C183.428,70.95 185.275,69.981 187.698,69.981 C189.957,69.981 191.704,70.861 192.939,72.621 C194.174,74.381 194.791,76.875 194.791,80.105 C194.791,80.25 194.779,80.499 194.756,80.851 C194.732,81.203 194.72,81.462 194.72,81.628 L180.251,81.628 L180.251,81.317 Z M194.651,91.316 C194.532,94.132 193.844,96.307 192.586,97.838 C191.327,99.37 189.604,100.136 187.416,100.136 C185.039,100.136 183.251,99.023 182.052,96.798 C180.851,94.573 180.251,91.213 180.251,86.72 L180.251,84.763 L199.132,84.763 L199.132,81.813 C199.132,76.865 198.167,73.117 196.238,70.571 C194.309,68.025 191.486,66.751 187.769,66.751 C183.675,66.751 180.64,68.253 178.664,71.255 C176.687,74.257 175.699,78.884 175.699,85.136 C175.699,91.368 176.657,95.98 178.575,98.971 C180.493,101.963 183.439,103.459 187.416,103.459 C190.92,103.459 193.65,102.425 195.603,100.353 C197.555,98.284 198.662,95.271 198.921,91.316 L194.651,91.316 Z" id="Fill-27" fill="#FFFFFE"></path>
                <polyline id="Fill-30" fill="#97C13B" points="6.069 54.671 0 54.671 0 102.496 27.774 102.496 27.774 97.341 6.069 97.341 6.069 54.671"></polyline>
                <g id="Group-34" transform="translate(53.000000, 0.000000)" fill="#97C13B">
                    <path d="M33.38,89.888 C33.31,92.849 32.698,95.105 31.545,96.659 C30.392,98.211 28.757,98.988 26.639,98.988 C23.84,98.988 21.841,97.896 20.64,95.711 C19.44,93.527 18.841,89.806 18.841,84.547 C18.841,79.35 19.434,75.67 20.622,73.506 C21.811,71.342 23.792,70.26 26.569,70.26 C28.592,70.26 30.156,70.913 31.262,72.218 C32.368,73.521 32.98,75.427 33.098,77.932 L38.639,77.932 L38.639,77.186 C38.639,73.666 37.539,70.888 35.339,68.847 C33.138,66.809 30.145,65.789 26.357,65.789 C21.77,65.789 18.346,67.326 16.088,70.401 C13.829,73.475 12.7,78.129 12.7,84.359 C12.7,90.84 13.787,95.644 15.964,98.77 C18.14,101.897 21.488,103.459 26.004,103.459 C30.122,103.459 33.31,102.28 35.568,99.919 C37.826,97.558 38.956,94.215 38.956,89.888 L33.38,89.888" id="Fill-31"></path>
                    <path d="M23.823,11.788 C26.212,11.788 28.147,13.724 28.147,16.112 C28.147,18.5 26.212,20.436 23.823,20.436 C21.435,20.436 19.499,18.5 19.499,16.112 C19.499,13.724 21.435,11.788 23.823,11.788 Z M4.044,12.964 C5.454,12.964 6.73,12.392 7.654,11.468 L10.476,8.646 C11.736,7.386 13.779,7.386 15.039,8.646 L18.684,12.292 C17.89,13.359 17.413,14.678 17.413,16.112 C17.413,19.652 20.283,22.521 23.823,22.521 C25.257,22.521 26.575,22.046 27.643,21.251 L30.998,24.606 C32.258,25.866 32.258,27.909 30.998,29.169 L28.161,32.006 C27.241,32.926 26.672,34.197 26.672,35.601 C26.672,37.006 27.241,38.276 28.161,39.196 L28.23,39.266 L37.513,29.984 C39.222,28.274 39.222,25.502 37.513,23.792 L30.214,16.493 C30.222,16.366 30.233,16.24 30.233,16.112 C30.233,12.571 27.364,9.702 23.823,9.702 C23.695,9.702 23.569,9.713 23.442,9.721 L15.853,2.131 C14.144,0.422 11.371,0.422 9.661,2.131 L0.379,11.414 L0.434,11.468 C1.358,12.392 2.634,12.964 4.044,12.964 Z" id="Fill-33"></path>
                </g>
                <path d="M29.67,68.183 L29.67,102.497 L35.529,102.497 L35.529,68.183 C34.614,68.523 33.63,68.718 32.599,68.718 C31.568,68.718 30.584,68.523 29.67,68.183" id="Fill-35" fill="#97C13B"></path>
                <path d="M32.598,64.603 C30.21,64.603 28.274,62.667 28.274,60.279 C28.274,57.891 30.21,55.955 32.598,55.955 C34.986,55.955 36.922,57.891 36.922,60.279 C36.922,62.667 34.986,64.603 32.598,64.603 Z M32.599,53.842 C29.044,53.842 26.161,56.725 26.161,60.28 C26.161,63.836 29.044,66.718 32.599,66.718 C36.155,66.718 39.037,63.836 39.037,60.28 C39.037,56.725 36.155,53.842 32.599,53.842 Z" id="Fill-36" fill="#97C13B"></path>
                <path d="M53.885,65.975 C51.461,65.975 49.403,66.41 47.709,67.279 C46.015,68.149 44.674,69.454 43.686,71.192 L43.686,66.751 L38.357,66.751 L38.357,102.496 L44.074,102.496 L44.074,78.273 C44.074,75.871 44.821,73.967 46.315,72.559 C47.809,71.151 49.826,70.447 52.368,70.447 C54.296,70.447 55.731,70.923 56.673,71.876 C57.614,72.829 58.084,74.278 58.084,76.223 L58.084,102.496 L63.801,102.496 L63.801,76.596 C63.801,72.703 63.042,69.96 61.525,68.366 C60.008,66.773 57.461,65.975 53.885,65.975" id="Fill-37" fill="#97C13B"></path>
            </g>
        </g>
    </g>
</svg>